<svg xmlns="http://www.w3.org/2000/svg" width="441" height="98" viewBox="36 212 441 98" fill="none"><g id="logo-site"><rect width="512" height="512" fill="white"></rect><g id="Neuronium - Logotipo Oficial 2025 6" clip-path="url(#clip0_294_3)"><g id="Camada_x0020_1"><g id="_3028127065168"><path id="Vector" d="M474.546 243.451C474.941 243.451 475.327 243.551 475.705 243.755C476.081 243.959 476.377 244.251 476.587 244.626C476.796 245.004 476.902 245.4 476.902 245.807C476.902 246.216 476.799 246.606 476.592 246.98C476.383 247.355 476.093 247.647 475.72 247.852C475.344 248.06 474.952 248.163 474.546 248.163C474.135 248.163 473.746 248.06 473.371 247.852C472.996 247.647 472.705 247.355 472.497 246.98C472.29 246.606 472.184 246.216 472.184 245.807C472.184 245.4 472.29 245.004 472.501 244.626C472.713 244.251 473.008 243.959 473.385 243.755C473.761 243.551 474.147 243.451 474.546 243.451ZM474.546 243.841C474.214 243.841 473.89 243.926 473.577 244.096C473.262 244.265 473.016 244.507 472.839 244.825C472.664 245.139 472.574 245.467 472.574 245.807C472.574 246.148 472.661 246.473 472.835 246.786C473.011 247.096 473.252 247.339 473.565 247.512C473.878 247.686 474.205 247.773 474.546 247.773C474.884 247.773 475.212 247.686 475.522 247.512C475.836 247.339 476.08 247.096 476.252 246.786C476.425 246.473 476.512 246.148 476.512 245.807C476.512 245.467 476.422 245.139 476.247 244.825C476.072 244.507 475.826 244.265 475.511 244.096C475.196 243.926 474.872 243.841 474.546 243.841ZM473.51 247.107V244.577H474.382C474.681 244.577 474.897 244.6 475.029 244.646C475.164 244.693 475.268 244.774 475.35 244.891C475.428 245.007 475.467 245.13 475.467 245.264C475.467 245.448 475.402 245.61 475.269 245.746C475.136 245.883 474.959 245.96 474.74 245.975C474.829 246.013 474.903 246.06 474.957 246.11C475.06 246.21 475.184 246.378 475.331 246.613L475.641 247.107H475.144L474.917 246.71C474.74 246.396 474.595 246.197 474.488 246.12C474.412 246.062 474.304 246.033 474.16 246.035H473.918V247.107H473.51ZM473.918 245.683H474.415C474.655 245.683 474.816 245.648 474.903 245.578C474.99 245.507 475.033 245.413 475.033 245.297C475.033 245.223 475.012 245.157 474.97 245.097C474.929 245.038 474.871 244.994 474.798 244.965C474.721 244.936 474.585 244.92 474.385 244.92H473.918V245.683Z" fill="#031B25"></path><path id="Vector_2" d="M173.622 283.506C172.592 283.506 171.586 283.25 170.601 282.737C169.617 282.222 168.745 281.496 167.985 280.557L167.85 280.423L145.772 251.77V283.509H136.243V241.143C136.243 239.266 136.723 237.836 137.686 236.853C138.648 235.87 139.888 235.377 141.41 235.377C142.259 235.377 143.088 235.612 143.893 236.082C144.698 236.551 145.481 237.254 146.241 238.194L169.527 268.337H169.529V235.377H179.058V277.809C179.058 279.597 178.554 280.993 177.547 281.999C176.54 283.005 175.233 283.506 173.622 283.506ZM194.497 267.688C194.651 269.143 194.976 270.433 195.469 271.559C196.189 273.197 197.234 274.432 198.603 275.262C199.975 276.093 201.603 276.507 203.49 276.507C205.648 276.507 207.388 276.114 208.714 275.329C210.04 274.543 210.905 273.545 211.309 272.333H220.611C219.802 275.969 217.892 278.741 214.881 280.648C211.87 282.556 207.984 283.509 203.221 283.509C199.311 283.509 195.987 282.769 193.246 281.287C190.505 279.806 188.437 277.752 187.044 275.127C185.651 272.501 184.955 269.46 184.955 266.005C184.955 262.413 185.651 259.272 187.044 256.579C188.437 253.886 190.505 251.809 193.246 250.351C195.987 248.893 199.266 248.163 203.086 248.163C206.951 248.163 210.209 248.858 212.86 250.25C215.511 251.641 217.522 253.617 218.892 256.175C220.263 258.733 220.97 261.762 221.015 265.264V266.071C221.015 266.341 221.005 266.611 220.981 266.88C220.96 267.148 220.925 267.418 220.88 267.688H194.497ZM449.808 254.236C449.078 252.543 448.071 251.201 446.783 250.208C445.016 248.844 442.678 248.163 439.77 248.163C437.266 248.163 435.095 248.767 433.261 249.973C431.987 250.812 430.917 251.931 430.052 253.33L428.922 248.163H420.198L421.316 256.005V283.509H430.576V264.184C430.576 261.323 431.07 259.223 432.053 257.882C433.037 256.542 434.514 255.872 436.482 255.872C437.691 255.872 438.708 256.14 439.536 256.676C440.364 257.213 441.001 258.095 441.449 259.324C441.896 260.552 442.119 262.173 442.119 264.184V283.509H451.38V264.184C451.38 261.323 451.872 259.223 452.857 257.882C453.841 256.542 455.317 255.872 457.286 255.872C458.494 255.872 459.523 256.14 460.373 256.676C461.222 257.213 461.861 258.095 462.286 259.324C462.71 260.552 462.923 262.173 462.923 264.184V283.509H472.183V263.513C472.183 258.374 471.245 254.531 469.366 251.983C467.486 249.437 464.489 248.163 460.373 248.163C457.599 248.163 455.228 248.855 453.259 250.241C451.824 251.251 450.673 252.583 449.808 254.236ZM339.944 253.495L338.774 248.163H330.051L331.203 256.005V283.509H340.463V264.787C340.463 261.748 341.012 259.503 342.107 258.05C343.204 256.598 344.915 255.872 347.241 255.872C349.434 255.872 351.068 256.587 352.141 258.017C353.214 259.446 353.751 261.636 353.751 264.586V283.509H363.013V263.513C363.013 258.464 362.017 254.643 360.026 252.051C358.035 249.458 354.869 248.163 350.531 248.163C347.756 248.163 345.385 248.767 343.416 249.973C342.007 250.837 340.849 252.011 339.944 253.495ZM210.914 262.235V262.233C210.831 261.206 210.659 260.285 210.399 259.474C209.882 257.858 209.006 256.646 207.771 255.839C206.535 255.03 204.928 254.627 202.951 254.627C200.839 254.627 199.143 255.131 197.862 256.142C196.582 257.15 195.684 258.453 195.166 260.046C194.945 260.728 194.771 261.458 194.645 262.235H210.914ZM368.91 283.509H378.182V248.163H368.91V283.509ZM373.546 235.377C376.105 235.377 378.182 237.452 378.182 240.008C378.182 242.565 376.105 244.639 373.546 244.639C370.985 244.639 368.91 242.565 368.91 240.008C368.91 237.452 370.985 235.377 373.546 235.377ZM399.715 283.509C396.271 283.554 393.384 282.985 391.058 281.8C388.732 280.616 386.987 278.851 385.823 276.504C384.661 274.158 384.079 271.175 384.079 267.556V248.163H393.273V267.556C393.273 269.611 393.541 271.22 394.078 272.382C394.615 273.543 395.354 274.371 396.292 274.862C397.233 275.353 398.373 275.6 399.715 275.6C401.773 275.6 403.362 275.007 404.479 273.823C405.598 272.639 406.158 270.55 406.158 267.556V248.163H415.419V267.556C415.374 272.918 414.043 276.929 411.425 279.587C408.808 282.247 404.904 283.554 399.715 283.509ZM307.04 283.509C303.129 283.509 299.815 282.757 297.097 281.254C294.378 279.749 292.323 277.662 290.93 274.993C289.537 272.321 288.841 269.236 288.841 265.735C288.841 262.323 289.537 259.282 290.93 256.613C292.323 253.941 294.378 251.866 297.097 250.385C299.815 248.903 303.129 248.163 307.04 248.163C310.904 248.163 314.207 248.903 316.948 250.385C319.689 251.866 321.767 253.941 323.181 256.613C324.598 259.282 325.306 262.323 325.306 265.735C325.306 269.236 324.598 272.321 323.181 274.993C321.767 277.662 319.689 279.749 316.948 281.254C314.207 282.757 310.904 283.509 307.04 283.509ZM306.972 275.767C309.848 275.767 312.049 274.891 313.577 273.142C315.105 271.391 315.87 268.922 315.87 265.735C315.87 263.67 315.521 261.909 314.825 260.451C314.128 258.991 313.117 257.869 311.791 257.084C310.466 256.298 308.86 255.905 306.972 255.905C304.186 255.905 302.04 256.769 300.535 258.497C299.03 260.226 298.277 262.638 298.277 265.735C298.277 267.889 298.614 269.708 299.288 271.188C299.962 272.669 300.95 273.803 302.254 274.588C303.557 275.374 305.129 275.767 306.972 275.767ZM264.125 257.213L262.995 248.163H271.719L273.117 254.397C273.968 252.341 275.163 250.789 276.707 249.738C278.251 248.689 280.275 248.163 282.78 248.163H284.592V257.816H282.176C279.627 257.816 277.748 258.084 276.539 258.62C275.332 259.156 274.505 260.129 274.056 261.536C273.609 262.944 273.386 265.1 273.386 268.005C273.386 273.172 273.386 278.341 273.386 283.509H264.125C264.125 274.743 264.125 265.979 264.125 257.213ZM242.524 283.509C239.079 283.554 236.193 282.985 233.867 281.8C231.541 280.616 229.795 278.851 228.633 276.504C227.469 274.158 226.887 271.175 226.887 267.556V248.163H236.081V267.556C236.081 269.611 236.349 271.22 236.886 272.382C237.423 273.543 238.162 274.371 239.101 274.862C240.041 275.353 241.181 275.6 242.524 275.6C244.581 275.6 246.17 275.007 247.289 273.823C248.406 272.639 248.966 270.55 248.966 267.556V248.163H258.227V267.556C258.182 272.918 256.851 276.929 254.234 279.587C251.617 282.247 247.714 283.554 242.524 283.509Z" fill="#031B25"></path><path id="Vector_3" d="M426.155 295.886H429.457C430.475 295.886 431.448 296.058 432.378 296.405C433.308 296.75 434.082 297.332 434.7 298.148C435.318 298.966 435.627 300.04 435.627 301.37C435.627 302.753 435.318 303.856 434.7 304.679C434.082 305.501 433.31 306.075 432.386 306.4C431.461 306.724 430.486 306.887 429.457 306.887H426.155V295.886ZM429.597 305.756C430.356 305.756 431.09 305.634 431.802 305.394C432.513 305.153 433.115 304.713 433.609 304.073C434.102 303.434 434.349 302.554 434.349 301.434C434.349 300.312 434.099 299.424 433.602 298.77C433.102 298.115 432.497 297.658 431.786 297.402C431.075 297.145 430.345 297.018 429.597 297.018H427.401V305.756H429.597Z" fill="#031B25"></path><path id="Vector_4" d="M437.353 305.75V300.118V299.06H438.551V305.75V306.887H437.353V305.75Z" fill="#031B25"></path><path id="Vector_5" d="M437.959 297.597C437.669 297.597 437.445 297.519 437.29 297.364C437.133 297.209 437.057 296.99 437.057 296.71C437.057 296.461 437.136 296.261 437.297 296.112C437.458 295.961 437.679 295.886 437.959 295.886C438.241 295.886 438.461 295.961 438.622 296.112C438.783 296.261 438.863 296.461 438.863 296.71C438.863 296.99 438.785 297.209 438.629 297.364C438.474 297.519 438.251 297.597 437.959 297.597Z" fill="#031B25"></path><path id="Vector_6" d="M450.213 305.75V300.118V299.06H451.412V305.75V306.887H450.213V305.75Z" fill="#031B25"></path><path id="Vector_7" d="M450.821 297.597C450.53 297.597 450.306 297.519 450.151 297.364C449.994 297.209 449.917 296.99 449.917 296.71C449.917 296.461 449.997 296.261 450.158 296.112C450.319 295.961 450.54 295.886 450.821 295.886C451.101 295.886 451.322 295.961 451.483 296.112C451.644 296.261 451.724 296.461 451.724 296.71C451.724 296.99 451.647 297.209 451.49 297.364C451.335 297.519 451.111 297.597 450.821 297.597Z" fill="#031B25"></path><path id="Vector_8" d="M457.454 306.887C456.757 306.887 456.194 306.778 455.764 306.561C455.333 306.342 455.013 305.989 454.804 305.502C454.597 305.014 454.494 304.366 454.494 303.557V300.118H452.499V299.06H454.527L454.727 296.632H455.692V299.06H458.404V300.118H455.692V303.666C455.692 304.175 455.74 304.581 455.833 304.888C455.926 305.194 456.103 305.424 456.363 305.579C456.623 305.736 456.997 305.813 457.484 305.813H458.669V306.887H457.454Z" fill="#031B25"></path><path id="Vector_9" d="M462.84 306.995C462.093 306.995 461.439 306.827 460.877 306.491C460.317 306.153 459.887 305.678 459.591 305.066C459.295 304.455 459.147 303.749 459.147 302.95C459.147 302.172 459.295 301.479 459.591 300.873C459.887 300.266 460.317 299.793 460.877 299.457C461.439 299.119 462.093 298.951 462.84 298.951C463.567 298.951 464.201 299.106 464.741 299.418C465.139 299.647 465.468 299.956 465.728 300.343L465.893 299.06H466.86V305.191L467.093 306.887H466.018L465.751 305.531C465.455 305.99 465.073 306.342 464.608 306.591C464.104 306.861 463.515 306.995 462.84 306.995ZM463.011 305.985C463.831 305.985 464.478 305.717 464.952 305.184C465.423 304.649 465.66 303.904 465.66 302.95C465.66 302.017 465.423 301.285 464.952 300.756C464.478 300.227 463.831 299.963 463.011 299.963C462.202 299.963 461.56 300.227 461.087 300.756C460.614 301.285 460.379 302.017 460.379 302.95C460.379 303.584 460.485 304.127 460.698 304.584C460.91 305.04 461.215 305.388 461.61 305.627C462.004 305.865 462.472 305.985 463.011 305.985Z" fill="#031B25"></path><path id="Vector_10" d="M471.483 306.965C470.808 306.965 470.286 306.863 469.917 306.662C469.548 306.459 469.295 306.147 469.154 305.727C469.013 305.308 468.943 304.734 468.943 304.008V296.897V295.886H470.158V304.117C470.158 304.553 470.203 304.901 470.291 305.16C470.38 305.42 470.525 305.608 470.727 305.727C470.93 305.847 471.213 305.907 471.576 305.907H472.184V306.965H471.483Z" fill="#031B25"></path><path id="Vector_11" d="M403.775 300.74L403.542 299.06H404.616L404.862 300.237C405.077 299.873 405.358 299.586 405.707 299.379C406.184 299.093 406.76 298.951 407.436 298.951C408.496 298.951 409.266 299.257 409.749 299.869C410.233 300.48 410.473 301.383 410.473 302.576V306.887H409.259V302.685C409.259 301.762 409.089 301.077 408.752 300.631C408.414 300.185 407.898 299.963 407.203 299.963C406.424 299.963 405.858 300.196 405.504 300.663C405.151 301.13 404.974 301.84 404.974 302.795V306.887H403.775V300.74Z" fill="#031B25"></path><path id="Vector_12" d="M400.975 297.597C400.683 297.597 400.46 297.519 400.304 297.364C400.149 297.209 400.071 296.99 400.071 296.71C400.071 296.461 400.151 296.261 400.312 296.112C400.473 295.961 400.693 295.886 400.975 295.886C401.255 295.886 401.475 295.961 401.636 296.112C401.798 296.261 401.877 296.461 401.877 296.71C401.877 296.99 401.8 297.209 401.644 297.364C401.488 297.519 401.265 297.597 400.975 297.597Z" fill="#031B25"></path><path id="Vector_13" d="M400.367 305.75V300.118V299.06H401.567V305.75V306.887H400.367V305.75Z" fill="#031B25"></path><path id="Vector_14" d="M392.83 299.06H398.734V300.118H392.83V299.06Z" fill="#031B25"></path><path id="Vector_15" d="M397.784 306.887C397.089 306.887 396.525 306.778 396.094 306.561C395.663 306.342 395.343 305.989 395.136 305.502C394.928 305.014 394.824 304.366 394.824 303.557V299.48L395.058 296.632H396.024V303.666C396.024 304.175 396.07 304.581 396.165 304.888C396.258 305.194 396.435 305.424 396.694 305.579C396.954 305.736 397.327 305.813 397.816 305.813H399V306.887H397.784Z" fill="#031B25"></path><path id="Vector_16" d="M377.99 295.886H379.19V302.312H380.141L383.085 299.06H384.549L381.12 302.776L384.69 306.887H383.226L380.157 303.308H379.19V306.887H377.99V295.886Z" fill="#031B25"></path><path id="Vector_17" d="M372.604 305.75V300.74L372.526 300.164L372.37 299.06H373.43L373.71 300.289C373.919 299.843 374.213 299.514 374.598 299.3C374.982 299.087 375.481 298.982 376.094 298.982H376.515V300.227H376.047C375.435 300.227 374.969 300.305 374.653 300.46C374.337 300.615 374.113 300.88 373.982 301.254C373.853 301.627 373.788 302.167 373.788 302.872V305.75V306.887H372.604V305.75Z" fill="#031B25"></path><path id="Vector_18" d="M366.547 305.985C367.369 305.985 368.014 305.717 368.487 305.184C368.96 304.649 369.196 303.904 369.196 302.95C369.196 302.017 368.96 301.285 368.487 300.756C368.014 300.227 367.369 299.963 366.547 299.963C365.738 299.963 365.096 300.227 364.623 300.756C364.15 301.285 363.915 302.017 363.915 302.95C363.915 303.584 364.021 304.127 364.234 304.584C364.446 305.04 364.751 305.388 365.146 305.627C365.54 305.865 366.008 305.985 366.547 305.985ZM366.376 306.995C365.629 306.995 364.974 306.827 364.413 306.491C363.853 306.153 363.423 305.678 363.127 305.066C362.831 304.455 362.683 303.749 362.683 302.95C362.683 302.172 362.831 301.479 363.127 300.873C363.423 300.266 363.853 299.793 364.413 299.457C364.974 299.119 365.629 298.951 366.376 298.951C367.103 298.951 367.737 299.106 368.277 299.418C368.675 299.647 369.004 299.956 369.264 300.343L369.429 299.06H370.396V305.191L370.629 306.887H369.554L369.288 305.531C368.991 305.99 368.609 306.342 368.145 306.591C367.64 306.861 367.051 306.995 366.376 306.995Z" fill="#031B25"></path><path id="Vector_19" d="M355.287 306.965C355.112 306.965 354.964 306.929 354.843 306.856C354.724 306.784 354.623 306.633 354.54 306.404L351.034 297.425L351.143 297.395L350.442 306.887H349.212L349.959 296.944C349.991 296.58 350.094 296.313 350.271 296.142C350.448 295.971 350.682 295.886 350.972 295.886C351.159 295.886 351.313 295.913 351.432 295.971C351.551 296.028 351.649 296.107 351.728 296.212C351.806 296.316 351.876 296.455 351.938 296.632L355.303 305.226L358.652 296.632C358.725 296.445 358.81 296.297 358.91 296.189C359.008 296.08 359.115 296.005 359.23 295.963C359.343 295.922 359.473 295.9 359.619 295.9C359.888 295.9 360.112 295.978 360.289 296.134C360.465 296.29 360.569 296.544 360.599 296.896L361.348 306.887H360.102L359.415 297.395L359.51 297.441L356.036 306.404C355.942 306.623 355.846 306.771 355.747 306.848C355.648 306.926 355.495 306.965 355.287 306.965Z" fill="#031B25"></path><path id="Vector_20" d="M330.524 305.985C331.345 305.985 331.991 305.717 332.464 305.184C332.937 304.649 333.172 303.904 333.172 302.95C333.172 302.017 332.934 301.285 332.456 300.756C331.978 300.227 331.335 299.963 330.524 299.963C329.714 299.963 329.07 300.23 328.592 300.763C328.115 301.298 327.876 302.027 327.876 302.95C327.876 303.583 327.984 304.127 328.202 304.584C328.421 305.04 328.73 305.388 329.129 305.627C329.53 305.865 329.994 305.985 330.524 305.985ZM330.322 306.995C329.583 306.995 328.938 306.827 328.382 306.491C327.826 306.153 327.401 305.678 327.105 305.066C326.809 304.455 326.661 303.749 326.661 302.95C326.661 302.172 326.809 301.479 327.105 300.873C327.401 300.266 327.826 299.793 328.382 299.457C328.938 299.119 329.583 298.951 330.322 298.951C331.049 298.951 331.68 299.106 332.214 299.418C332.597 299.641 332.918 299.938 333.172 300.311V295.886H334.356V305.207L334.591 306.887H333.53L333.252 305.479C332.95 305.962 332.557 306.333 332.075 306.591C331.57 306.861 330.987 306.995 330.322 306.995Z" fill="#031B25"></path><path id="Vector_21" d="M317.177 305.985C317.997 305.985 318.644 305.717 319.115 305.184C319.589 304.649 319.825 303.904 319.825 302.95C319.825 302.017 319.589 301.285 319.115 300.756C318.644 300.227 317.997 299.963 317.177 299.963C316.366 299.963 315.724 300.227 315.253 300.756C314.78 301.285 314.543 302.017 314.543 302.95C314.543 303.584 314.651 304.127 314.862 304.584C315.076 305.04 315.379 305.388 315.774 305.627C316.168 305.865 316.636 305.985 317.177 305.985ZM317.006 306.995C316.257 306.995 315.603 306.827 315.042 306.491C314.481 306.153 314.053 305.678 313.757 305.066C313.461 304.455 313.313 303.749 313.313 302.95C313.313 302.172 313.461 301.479 313.757 300.873C314.053 300.266 314.481 299.793 315.042 299.457C315.603 299.119 316.257 298.951 317.006 298.951C317.733 298.951 318.365 299.106 318.905 299.418C319.304 299.647 319.632 299.956 319.893 300.343L320.059 299.06H321.025V305.191L321.259 306.887H320.183L319.916 305.531C319.619 305.99 319.239 306.342 318.773 306.591C318.27 306.861 317.68 306.995 317.006 306.995Z" fill="#031B25"></path><path id="Vector_22" d="M311.074 297.597C310.782 297.597 310.559 297.519 310.404 297.364C310.247 297.209 310.17 296.99 310.17 296.71C310.17 296.461 310.25 296.261 310.411 296.112C310.572 295.961 310.792 295.886 311.074 295.886C311.354 295.886 311.575 295.961 311.736 296.112C311.897 296.261 311.976 296.461 311.976 296.71C311.976 296.99 311.9 297.209 311.743 297.364C311.588 297.519 311.364 297.597 311.074 297.597Z" fill="#031B25"></path><path id="Vector_23" d="M310.466 305.75V300.118V299.06H311.664V305.75V306.887H310.466V305.75Z" fill="#031B25"></path><path id="Vector_24" d="M305.157 306.995C304.347 306.995 303.64 306.824 303.038 306.482C302.436 306.14 301.973 305.663 301.652 305.05C301.33 304.439 301.169 303.739 301.169 302.95C301.169 302.172 301.33 301.479 301.652 300.873C301.973 300.266 302.436 299.793 303.038 299.457C303.64 299.119 304.347 298.951 305.157 298.951C305.833 298.951 306.435 299.073 306.965 299.316C307.494 299.56 307.929 299.905 308.273 300.351C308.616 300.798 308.854 301.317 308.99 301.908H307.758C307.583 301.285 307.271 300.805 306.824 300.467C306.377 300.131 305.821 299.963 305.157 299.963C304.305 299.963 303.633 300.227 303.14 300.756C302.646 301.285 302.4 302.017 302.4 302.95C302.4 303.584 302.511 304.127 302.735 304.584C302.958 305.04 303.277 305.388 303.692 305.627C304.107 305.865 304.596 305.985 305.157 305.985C305.833 305.985 306.396 305.813 306.847 305.471C307.3 305.129 307.609 304.646 307.774 304.024H309.021C308.823 304.937 308.387 305.66 307.712 306.194C307.037 306.729 306.185 306.995 305.157 306.995Z" fill="#031B25"></path><g id="Group"><path id="Vector_25" d="M286.875 295.886H288.012L289.897 298.035H289.273L287.187 296.726H287.716L285.612 298.035H284.99L286.875 295.886ZM287.544 306.995C286.734 306.995 286.03 306.827 285.434 306.491C284.836 306.153 284.376 305.681 284.054 305.073C283.733 304.468 283.572 303.769 283.572 302.981C283.572 302.182 283.73 301.479 284.047 300.873C284.363 300.266 284.819 299.793 285.411 299.457C286.003 299.119 286.692 298.951 287.481 298.951C288.272 298.951 288.954 299.106 289.53 299.418C290.108 299.73 290.552 300.167 290.862 300.733C291.174 301.298 291.341 301.959 291.361 302.717V302.888C291.361 302.94 291.358 302.996 291.354 303.059C291.348 303.121 291.341 303.183 291.329 303.246H284.813C284.845 303.72 284.949 304.146 285.129 304.521C285.348 304.978 285.662 305.333 286.072 305.588C286.483 305.842 286.978 305.969 287.56 305.969C288.214 305.969 288.765 305.832 289.211 305.556C289.658 305.282 289.949 304.926 290.084 304.491H291.283C291.055 305.279 290.614 305.894 289.96 306.334C289.305 306.775 288.5 306.995 287.544 306.995ZM290.039 302.218C290.006 301.88 289.928 301.573 289.803 301.301C289.606 300.864 289.31 300.532 288.915 300.305C288.52 300.076 288.037 299.963 287.467 299.963C286.885 299.963 286.394 300.095 285.994 300.359C285.595 300.624 285.296 300.979 285.099 301.425C284.99 301.672 284.91 301.937 284.861 302.218H290.039Z" fill="#031B25"></path></g><path id="Vector_26" d="M268.031 296.663C268.104 296.465 268.19 296.31 268.288 296.196C268.387 296.083 268.496 296.002 268.616 295.955C268.735 295.909 268.873 295.886 269.028 295.886C269.184 295.886 269.319 295.909 269.433 295.955C269.548 296.002 269.654 296.083 269.752 296.196C269.851 296.31 269.937 296.465 270.009 296.663L273.873 306.887H272.565L271.453 303.837H266.583L265.46 306.887H264.137L268.031 296.663ZM271.061 302.763L269.028 297.192L266.978 302.763H271.061Z" fill="#031B25"></path><path id="Vector_27" d="M292.946 300.74L292.712 299.06H293.788L294.033 300.237C294.249 299.873 294.531 299.586 294.879 299.379C295.356 299.093 295.932 298.951 296.608 298.951C297.668 298.951 298.438 299.257 298.921 299.869C299.405 300.48 299.646 301.383 299.646 302.576V306.887H298.431V302.685C298.431 301.762 298.261 301.077 297.925 300.631C297.586 300.185 297.07 299.963 296.373 299.963C295.596 299.963 295.03 300.196 294.676 300.663C294.323 301.13 294.146 301.84 294.146 302.795V306.887H292.946V300.74Z" fill="#031B25"></path><g id="Group_2"><path id="Vector_28" d="M339.977 306.995C339.168 306.995 338.464 306.827 337.866 306.491C337.268 306.153 336.81 305.681 336.487 305.073C336.165 304.468 336.004 303.769 336.004 302.981C336.004 302.182 336.162 301.479 336.479 300.873C336.797 300.266 337.251 299.793 337.843 299.457C338.435 299.119 339.125 298.951 339.915 298.951C340.704 298.951 341.388 299.106 341.964 299.418C342.54 299.73 342.984 300.167 343.296 300.733C343.606 301.298 343.773 301.959 343.793 302.717V302.888C343.793 302.94 343.792 302.996 343.786 303.059C343.78 303.121 343.773 303.183 343.763 303.246H337.245C337.277 303.72 337.383 304.146 337.563 304.521C337.78 304.978 338.094 305.333 338.504 305.588C338.915 305.842 339.411 305.969 339.993 305.969C340.648 305.969 341.198 305.832 341.644 305.556C342.09 305.282 342.382 304.926 342.517 304.491H343.717C343.487 305.279 343.046 305.894 342.392 306.334C341.737 306.775 340.932 306.995 339.977 306.995ZM342.473 302.218C342.438 301.88 342.36 301.573 342.237 301.301C342.039 300.864 341.743 300.533 341.348 300.305C340.954 300.076 340.471 299.963 339.899 299.963C339.317 299.963 338.827 300.095 338.428 300.359C338.027 300.624 337.728 300.979 337.531 301.425C337.422 301.672 337.342 301.937 337.294 302.218H342.473Z" fill="#031B25"></path></g><g id="Group_3"><path id="Vector_29" d="M388.846 306.995C388.036 306.995 387.332 306.827 386.734 306.491C386.138 306.153 385.678 305.681 385.356 305.073C385.034 304.468 384.873 303.769 384.873 302.981C384.873 302.182 385.031 301.479 385.349 300.873C385.665 300.266 386.119 299.793 386.711 299.457C387.303 299.119 387.994 298.951 388.783 298.951C389.573 298.951 390.256 299.106 390.832 299.418C391.408 299.73 391.852 300.167 392.164 300.733C392.476 301.298 392.642 301.959 392.663 302.717V302.888C392.663 302.94 392.66 302.996 392.655 303.059C392.65 303.121 392.642 303.183 392.631 303.246H386.113C386.145 303.72 386.251 304.146 386.431 304.521C386.649 304.978 386.964 305.333 387.373 305.588C387.783 305.842 388.28 305.969 388.862 305.969C389.516 305.969 390.066 305.832 390.513 305.556C390.96 305.282 391.25 304.926 391.385 304.491H392.585C392.356 305.279 391.915 305.894 391.26 306.334C390.606 306.775 389.802 306.995 388.846 306.995ZM391.341 302.218C391.308 301.88 391.228 301.573 391.105 301.301C390.908 300.864 390.612 300.533 390.217 300.305C389.822 300.076 389.339 299.963 388.767 299.963C388.187 299.963 387.695 300.095 387.296 300.359C386.895 300.624 386.596 300.979 386.399 301.425C386.29 301.672 386.212 301.937 386.163 302.218H391.341Z" fill="#031B25"></path></g><path id="Vector_30" fill-rule="evenodd" clip-rule="evenodd" d="M277.983 305.674C278.803 305.674 279.45 305.414 279.923 304.895C280.394 304.376 280.631 303.676 280.631 302.795C280.631 302.224 280.525 301.725 280.312 301.301C280.098 300.875 279.792 300.546 279.393 300.312C278.993 300.079 278.523 299.963 277.983 299.963C277.173 299.963 276.532 300.219 276.059 300.733C275.586 301.246 275.349 301.934 275.349 302.795C275.349 303.375 275.457 303.884 275.668 304.32C275.882 304.755 276.186 305.089 276.581 305.323C276.976 305.556 277.443 305.674 277.983 305.674ZM280.889 300.643C280.64 300.18 280.297 299.806 279.86 299.519C279.283 299.14 278.591 298.951 277.78 298.951C277.043 298.951 276.397 299.116 275.841 299.448C275.285 299.78 274.859 300.237 274.563 300.818C274.267 301.399 274.119 302.057 274.119 302.795C274.119 303.541 274.267 304.211 274.563 304.802C274.859 305.394 275.285 305.855 275.841 306.187C276.397 306.519 277.043 306.685 277.78 306.685C278.559 306.685 279.236 306.501 279.813 306.133C280.245 305.858 280.59 305.497 280.85 305.049V306.047C280.85 306.721 280.743 307.278 280.529 307.72C280.318 308.161 280.003 308.487 279.588 308.7C279.173 308.913 278.658 309.019 278.045 309.019H275.895V310H278.029C278.881 310 279.604 309.854 280.196 309.564C280.788 309.274 281.245 308.812 281.565 308.178C281.888 307.546 282.049 306.732 282.049 305.736V299.06H281.084L280.889 300.643Z" fill="#031B25"></path><path id="Vector_31" fill-rule="evenodd" clip-rule="evenodd" d="M415.86 305.674C416.681 305.674 417.328 305.414 417.8 304.895C418.273 304.376 418.509 303.676 418.509 302.795C418.509 302.224 418.402 301.725 418.19 301.301C417.977 300.875 417.671 300.546 417.27 300.312C416.871 300.079 416.401 299.963 415.86 299.963C415.05 299.963 414.409 300.219 413.936 300.733C413.464 301.246 413.228 301.934 413.228 302.795C413.228 303.375 413.333 303.884 413.547 304.32C413.76 304.755 414.063 305.089 414.458 305.323C414.853 305.556 415.32 305.674 415.86 305.674ZM418.766 300.643C418.518 300.18 418.174 299.806 417.737 299.519C417.161 299.14 416.468 298.951 415.658 298.951C414.921 298.951 414.274 299.116 413.718 299.448C413.162 299.78 412.737 300.237 412.441 300.818C412.145 301.399 411.997 302.057 411.997 302.795C411.997 303.541 412.145 304.211 412.441 304.802C412.737 305.394 413.162 305.855 413.718 306.187C414.274 306.519 414.921 306.685 415.658 306.685C416.437 306.685 417.115 306.501 417.691 306.133C418.122 305.858 418.467 305.497 418.727 305.049V306.047C418.727 306.721 418.621 307.278 418.408 307.72C418.194 308.161 417.881 308.487 417.465 308.7C417.05 308.913 416.536 309.019 415.922 309.019H413.773V310H415.908C416.759 310 417.481 309.854 418.073 309.564C418.665 309.274 419.122 308.812 419.444 308.178C419.766 307.546 419.927 306.732 419.927 305.736V299.06H418.961L418.766 300.643Z" fill="#031B25"></path><path id="Vector_32" fill-rule="evenodd" clip-rule="evenodd" d="M444.062 305.674C444.883 305.674 445.531 305.414 446.002 304.895C446.475 304.376 446.712 303.676 446.712 302.795C446.712 302.224 446.604 301.725 446.393 301.301C446.179 300.875 445.873 300.546 445.473 300.312C445.074 300.079 444.603 299.963 444.062 299.963C443.252 299.963 442.611 300.219 442.14 300.733C441.666 301.246 441.43 301.934 441.43 302.795C441.43 303.375 441.536 303.884 441.749 304.32C441.963 304.755 442.266 305.089 442.66 305.323C443.055 305.556 443.522 305.674 444.062 305.674ZM446.969 300.643C446.72 300.18 446.377 299.806 445.94 299.519C445.364 299.14 444.67 298.951 443.86 298.951C443.123 298.951 442.476 299.116 441.92 299.448C441.365 299.78 440.94 300.237 440.643 300.818C440.347 301.399 440.199 302.057 440.199 302.795C440.199 303.541 440.347 304.211 440.643 304.802C440.94 305.394 441.365 305.855 441.92 306.187C442.476 306.519 443.123 306.685 443.86 306.685C444.64 306.685 445.317 306.501 445.893 306.133C446.324 305.858 446.67 305.497 446.929 305.049V306.047C446.929 306.721 446.824 307.278 446.61 307.72C446.397 308.161 446.083 308.487 445.667 308.7C445.252 308.913 444.738 309.019 444.125 309.019H441.976V310H444.11C444.962 310 445.683 309.854 446.275 309.564C446.867 309.274 447.324 308.812 447.646 308.178C447.968 307.546 448.129 306.732 448.129 305.736V299.06H447.163L446.969 300.643Z" fill="#031B25"></path><path id="Vector_33" fill-rule="evenodd" clip-rule="evenodd" d="M110.074 259.443C111.947 259.443 113.466 260.961 113.466 262.833C113.466 264.703 111.947 266.221 110.074 266.221C108.197 266.221 106.678 264.703 106.678 262.833C106.678 260.961 108.197 259.443 110.074 259.443ZM96.4932 302.37C96.4932 301.718 96.8647 301.151 97.4045 300.87C103.944 297.258 108.374 290.305 108.374 282.321V272.859C103.561 272.052 99.8901 267.87 99.8901 262.833C99.8901 257.217 104.448 252.666 110.074 252.666C115.696 252.666 120.254 257.217 120.254 262.833C120.254 267.87 116.586 272.052 111.77 272.859V282.321C111.77 291.293 106.888 299.519 99.0224 303.85C97.908 304.473 96.4932 303.676 96.4932 302.37ZM87.8058 306.887C88.7446 306.887 89.5021 306.13 89.5021 305.194C89.5021 304.257 88.7446 303.499 87.8058 303.499C87.8159 303.483 87.2413 303.499 87.1601 303.499C75.4458 303.499 65.9458 294.015 65.9458 282.321V274.694V269.862V261.69C65.9864 258.806 67.5057 256.013 70.1886 254.465C72.8731 252.921 76.048 253.002 78.5699 254.407L80.4301 255.476L82.0031 261.341C82.2454 262.239 83.1799 262.78 84.081 262.539C84.9806 262.297 85.5218 261.364 85.2795 260.465L84.5874 257.872L89.8547 260.913C90.6644 261.378 91.7077 261.1 92.1734 260.293C92.6421 259.484 92.3635 258.442 91.5553 257.978L86.2836 254.937L88.8767 254.244C89.7807 254.004 90.3176 253.067 90.0767 252.167C90.0767 251.356 88.7911 250.76 88.0002 250.97L82.1264 252.541L80.2966 251.489C77.8023 250.012 76.1292 247.297 76.1292 244.193C76.1292 241.117 77.7718 238.423 80.2284 236.94L82.1264 235.847L88.0002 237.418C88.8999 237.66 89.8344 237.12 90.0767 236.221C90.3176 235.321 89.7778 234.385 88.8767 234.144L86.2836 233.451L91.5553 230.41C92.3635 229.945 92.6421 228.904 92.1778 228.096C91.7077 227.288 90.6644 227.01 89.8547 227.478L84.583 230.516L85.2795 227.923C85.5218 227.025 84.9806 226.091 84.081 225.849C83.132 225.849 82.3165 225.874 82.0002 227.048L80.4258 232.912L78.6047 233.964C76.0784 235.386 72.8832 235.475 70.1886 233.924C67.5057 232.376 65.9893 229.586 65.9458 226.701V224.566L70.2452 220.27C70.9084 219.612 70.9084 218.532 70.2452 217.874C69.5865 217.216 68.5054 217.216 67.8452 217.874L65.9458 219.772V213.694C65.9458 212.764 65.184 212 64.2495 212C63.315 212 62.5532 212.764 62.5532 213.694V219.772L60.6538 217.874C59.9936 217.216 58.9126 217.216 58.2538 217.874C57.5936 218.532 57.5936 219.612 58.2538 220.27L62.5532 224.563V226.701C62.5097 229.586 60.9934 232.376 58.3075 233.924C55.6187 235.475 52.4307 235.386 49.9045 233.97L48.0733 232.912L46.5003 227.048C46.258 226.148 45.3206 225.608 44.4195 225.849C43.5184 226.091 42.9772 227.025 43.2195 227.923L43.916 230.516L38.6444 227.478C37.8347 227.01 36.7914 227.293 36.3256 228.096C35.8569 228.904 36.1355 229.945 36.9437 230.41L42.2168 233.451L39.6224 234.144C38.7227 234.385 38.1815 235.321 38.4223 236.221C38.8519 237.079 39.3989 237.714 40.5002 237.418L46.3741 235.847L48.2503 236.927C50.7171 238.41 52.3698 241.108 52.3698 244.193C52.3698 247.305 50.6909 250.022 48.1879 251.495L46.3741 252.541L40.5002 250.97C39.5991 250.728 38.6647 251.269 38.4223 252.167C38.1815 253.067 38.7227 254.004 39.6224 254.244L42.2168 254.937L36.9437 257.978C36.1384 258.442 35.8569 259.484 36.3256 260.293C36.7914 261.1 37.8347 261.378 38.6444 260.913L43.916 257.872L43.2195 260.465C42.9772 261.364 43.5184 262.297 44.4195 262.539C45.3206 262.78 46.258 262.239 46.5003 261.341L48.0733 255.476L49.9422 254.397C52.4612 253.002 55.6332 252.924 58.3075 254.465C60.9934 256.013 62.5097 258.806 62.5532 261.69V274.694V282.321C62.5532 295.889 73.5696 306.887 87.1601 306.887C87.3777 306.887 87.591 306.887 87.8058 306.887ZM92.9991 306.137C92.0617 306.137 91.3028 305.376 91.3028 304.44C91.3028 303.507 92.0617 302.747 92.9991 302.747C93.9379 302.747 94.6954 303.507 94.6954 304.44C94.6954 305.376 93.9379 306.137 92.9991 306.137ZM64.2495 239.113C67.0616 239.113 69.3412 241.385 69.3412 244.193C69.3412 247.002 67.0616 249.276 64.2495 249.276C61.4388 249.276 59.1578 247.002 59.1578 244.193C59.1578 241.385 61.4388 239.113 64.2495 239.113ZM110.074 256.056C113.823 256.056 116.862 259.091 116.862 262.833C116.862 266.577 113.823 269.611 110.074 269.611C106.324 269.611 103.286 266.577 103.286 262.833C103.286 259.091 106.324 256.056 110.074 256.056Z" fill="#031B25"></path></g></g></g></g><defs><clipPath id="clip0_294_3"><rect width="441" height="98" fill="white" transform="translate(36 212)"></rect></clipPath></defs></svg>